<?xml version="1.0" encoding="UTF-8" ?>
<svg version="1.1" width="32" height="32" xmlns="http://www.w3.org/2000/svg" shape-rendering="crispEdges">
<rect x="12" y="2" width="1" height="1" fill="#000000" />
<rect x="13" y="2" width="1" height="1" fill="#000000" />
<rect x="14" y="2" width="1" height="1" fill="#000000" />
<rect x="15" y="2" width="1" height="1" fill="#000000" />
<rect x="10" y="3" width="1" height="1" fill="#000000" />
<rect x="11" y="3" width="1" height="1" fill="#000000" />
<rect x="12" y="3" width="1" height="1" fill="#4D4D8B" />
<rect x="13" y="3" width="1" height="1" fill="#4F4F8E" />
<rect x="14" y="3" width="1" height="1" fill="#50508F" />
<rect x="15" y="3" width="1" height="1" fill="#50508F" />
<rect x="16" y="3" width="1" height="1" fill="#000000" />
<rect x="17" y="3" width="1" height="1" fill="#000000" />
<rect x="9" y="4" width="1" height="1" fill="#000000" />
<rect x="10" y="4" width="1" height="1" fill="#474781" />
<rect x="11" y="4" width="1" height="1" fill="#494985" />
<rect x="12" y="4" width="1" height="1" fill="#4B4B88" />
<rect x="13" y="4" width="1" height="1" fill="#4D4D8B" />
<rect x="14" y="4" width="1" height="1" fill="#50508F" />
<rect x="15" y="4" width="1" height="1" fill="#50508F" />
<rect x="16" y="4" width="1" height="1" fill="#50508F" />
<rect x="17" y="4" width="1" height="1" fill="#50508F" />
<rect x="18" y="4" width="1" height="1" fill="#000000" />
<rect x="8" y="5" width="1" height="1" fill="#000000" />
<rect x="9" y="5" width="1" height="1" fill="#43437B" />
<rect x="10" y="5" width="1" height="1" fill="#46467F" />
<rect x="11" y="5" width="1" height="1" fill="#484882" />
<rect x="12" y="5" width="1" height="1" fill="#4A4A85" />
<rect x="13" y="5" width="1" height="1" fill="#4C4C89" />
<rect x="14" y="5" width="1" height="1" fill="#4E4E8C" />
<rect x="15" y="5" width="1" height="1" fill="#50508F" />
<rect x="16" y="5" width="1" height="1" fill="#50508F" />
<rect x="17" y="5" width="1" height="1" fill="#000000" />
<rect x="18" y="5" width="1" height="1" fill="#000000" />
<rect x="19" y="5" width="1" height="1" fill="#000000" />
<rect x="7" y="6" width="1" height="1" fill="#000000" />
<rect x="8" y="6" width="1" height="1" fill="#404075" />
<rect x="9" y="6" width="1" height="1" fill="#424279" />
<rect x="10" y="6" width="1" height="1" fill="#000000" />
<rect x="11" y="6" width="1" height="1" fill="#46467F" />
<rect x="12" y="6" width="1" height="1" fill="#000000" />
<rect x="13" y="6" width="1" height="1" fill="#4A4A86" />
<rect x="14" y="6" width="1" height="1" fill="#4C4C89" />
<rect x="15" y="6" width="1" height="1" fill="#4E4E8D" />
<rect x="16" y="6" width="1" height="1" fill="#000000" />
<rect x="17" y="6" width="1" height="1" fill="#00D3FF" />
<rect x="18" y="6" width="1" height="1" fill="#00D3FF" />
<rect x="19" y="6" width="1" height="1" fill="#00D3FF" />
<rect x="20" y="6" width="1" height="1" fill="#000000" />
<rect x="6" y="7" width="1" height="1" fill="#000000" />
<rect x="7" y="7" width="1" height="1" fill="#3F3F74" />
<rect x="8" y="7" width="1" height="1" fill="#3F3F74" />
<rect x="9" y="7" width="1" height="1" fill="#000000" />
<rect x="10" y="7" width="1" height="1" fill="#424279" />
<rect x="11" y="7" width="1" height="1" fill="#44447D" />
<rect x="12" y="7" width="1" height="1" fill="#000000" />
<rect x="13" y="7" width="1" height="1" fill="#484883" />
<rect x="14" y="7" width="1" height="1" fill="#4B4B87" />
<rect x="15" y="7" width="1" height="1" fill="#000000" />
<rect x="16" y="7" width="1" height="1" fill="#08D2FC" />
<rect x="17" y="7" width="1" height="1" fill="#00D3FF" />
<rect x="18" y="7" width="1" height="1" fill="#00D3FF" />
<rect x="19" y="7" width="1" height="1" fill="#FFFFFF" />
<rect x="20" y="7" width="1" height="1" fill="#00D3FF" />
<rect x="21" y="7" width="1" height="1" fill="#000000" />
<rect x="6" y="8" width="1" height="1" fill="#000000" />
<rect x="7" y="8" width="1" height="1" fill="#3F3F74" />
<rect x="8" y="8" width="1" height="1" fill="#3F3F74" />
<rect x="9" y="8" width="1" height="1" fill="#000000" />
<rect x="10" y="8" width="1" height="1" fill="#414177" />
<rect x="11" y="8" width="1" height="1" fill="#000000" />
<rect x="12" y="8" width="1" height="1" fill="#45457D" />
<rect x="13" y="8" width="1" height="1" fill="#474781" />
<rect x="14" y="8" width="1" height="1" fill="#000000" />
<rect x="15" y="8" width="1" height="1" fill="#1ED1F6" />
<rect x="16" y="8" width="1" height="1" fill="#10D1FA" />
<rect x="17" y="8" width="1" height="1" fill="#02D2FE" />
<rect x="18" y="8" width="1" height="1" fill="#00D3FF" />
<rect x="19" y="8" width="1" height="1" fill="#00D3FF" />
<rect x="20" y="8" width="1" height="1" fill="#FFFFFF" />
<rect x="21" y="8" width="1" height="1" fill="#000000" />
<rect x="6" y="9" width="1" height="1" fill="#000000" />
<rect x="7" y="9" width="1" height="1" fill="#3F3F74" />
<rect x="8" y="9" width="1" height="1" fill="#3F3F74" />
<rect x="9" y="9" width="1" height="1" fill="#000000" />
<rect x="10" y="9" width="1" height="1" fill="#43437A" />
<rect x="11" y="9" width="1" height="1" fill="#000000" />
<rect x="12" y="9" width="1" height="1" fill="#50508F" />
<rect x="13" y="9" width="1" height="1" fill="#000000" />
<rect x="14" y="9" width="1" height="1" fill="#35CFEF" />
<rect x="15" y="9" width="1" height="1" fill="#27D0F3" />
<rect x="16" y="9" width="1" height="1" fill="#19D1F7" />
<rect x="17" y="9" width="1" height="1" fill="#0BD2FB" />
<rect x="18" y="9" width="1" height="1" fill="#00D3FF" />
<rect x="19" y="9" width="1" height="1" fill="#00D3FF" />
<rect x="20" y="9" width="1" height="1" fill="#00D3FF" />
<rect x="21" y="9" width="1" height="1" fill="#00D3FF" />
<rect x="22" y="9" width="1" height="1" fill="#000000" />
<rect x="1" y="10" width="1" height="1" fill="#000000" />
<rect x="2" y="10" width="1" height="1" fill="#000000" />
<rect x="3" y="10" width="1" height="1" fill="#000000" />
<rect x="4" y="10" width="1" height="1" fill="#000000" />
<rect x="5" y="10" width="1" height="1" fill="#000000" />
<rect x="6" y="10" width="1" height="1" fill="#323259" />
<rect x="7" y="10" width="1" height="1" fill="#3F3F74" />
<rect x="8" y="10" width="1" height="1" fill="#000000" />
<rect x="9" y="10" width="1" height="1" fill="#414177" />
<rect x="10" y="10" width="1" height="1" fill="#44447C" />
<rect x="11" y="10" width="1" height="1" fill="#000000" />
<rect x="12" y="10" width="1" height="1" fill="#414178" />
<rect x="13" y="10" width="1" height="1" fill="#000000" />
<rect x="14" y="10" width="1" height="1" fill="#3DCFED" />
<rect x="15" y="10" width="1" height="1" fill="#2FD0F1" />
<rect x="16" y="10" width="1" height="1" fill="#21D0F5" />
<rect x="17" y="10" width="1" height="1" fill="#13D1F9" />
<rect x="18" y="10" width="1" height="1" fill="#05D2FD" />
<rect x="19" y="10" width="1" height="1" fill="#00D3FF" />
<rect x="20" y="10" width="1" height="1" fill="#00D3FF" />
<rect x="21" y="10" width="1" height="1" fill="#00D3FF" />
<rect x="22" y="10" width="1" height="1" fill="#000000" />
<rect x="0" y="11" width="1" height="1" fill="#000000" />
<rect x="1" y="11" width="1" height="1" fill="#3F3F74" />
<rect x="2" y="11" width="1" height="1" fill="#3F3F74" />
<rect x="3" y="11" width="1" height="1" fill="#3F3F74" />
<rect x="4" y="11" width="1" height="1" fill="#3F3F74" />
<rect x="5" y="11" width="1" height="1" fill="#000000" />
<rect x="6" y="11" width="1" height="1" fill="#323259" />
<rect x="7" y="11" width="1" height="1" fill="#3F3F74" />
<rect x="8" y="11" width="1" height="1" fill="#000000" />
<rect x="9" y="11" width="1" height="1" fill="#424279" />
<rect x="10" y="11" width="1" height="1" fill="#000000" />
<rect x="11" y="11" width="1" height="1" fill="#484882" />
<rect x="12" y="11" width="1" height="1" fill="#50508F" />
<rect x="13" y="11" width="1" height="1" fill="#000000" />
<rect x="14" y="11" width="1" height="1" fill="#45CEEB" />
<rect x="15" y="11" width="1" height="1" fill="#37CFEF" />
<rect x="16" y="11" width="1" height="1" fill="#29D0F3" />
<rect x="17" y="11" width="1" height="1" fill="#1BD1F7" />
<rect x="18" y="11" width="1" height="1" fill="#0DD2FB" />
<rect x="19" y="11" width="1" height="1" fill="#00D3FF" />
<rect x="20" y="11" width="1" height="1" fill="#00D3FF" />
<rect x="21" y="11" width="1" height="1" fill="#00D3FF" />
<rect x="22" y="11" width="1" height="1" fill="#000000" />
<rect x="0" y="12" width="1" height="1" fill="#000000" />
<rect x="1" y="12" width="1" height="1" fill="#3F3F74" />
<rect x="2" y="12" width="1" height="1" fill="#3F3F74" />
<rect x="3" y="12" width="1" height="1" fill="#3F3F74" />
<rect x="4" y="12" width="1" height="1" fill="#3F3F74" />
<rect x="5" y="12" width="1" height="1" fill="#000000" />
<rect x="6" y="12" width="1" height="1" fill="#323259" />
<rect x="7" y="12" width="1" height="1" fill="#3F3F74" />
<rect x="8" y="12" width="1" height="1" fill="#000000" />
<rect x="9" y="12" width="1" height="1" fill="#43437B" />
<rect x="10" y="12" width="1" height="1" fill="#000000" />
<rect x="11" y="12" width="1" height="1" fill="#494984" />
<rect x="12" y="12" width="1" height="1" fill="#4C4C89" />
<rect x="13" y="12" width="1" height="1" fill="#000000" />
<rect x="14" y="12" width="1" height="1" fill="#4ECEE8" />
<rect x="15" y="12" width="1" height="1" fill="#40CEEC" />
<rect x="16" y="12" width="1" height="1" fill="#32CFF0" />
<rect x="17" y="12" width="1" height="1" fill="#24D0F4" />
<rect x="18" y="12" width="1" height="1" fill="#16D1F8" />
<rect x="19" y="12" width="1" height="1" fill="#08D2FC" />
<rect x="20" y="12" width="1" height="1" fill="#00D3FF" />
<rect x="21" y="12" width="1" height="1" fill="#00D3FF" />
<rect x="22" y="12" width="1" height="1" fill="#000000" />
<rect x="0" y="13" width="1" height="1" fill="#000000" />
<rect x="1" y="13" width="1" height="1" fill="#3F3F74" />
<rect x="2" y="13" width="1" height="1" fill="#3F3F74" />
<rect x="3" y="13" width="1" height="1" fill="#3F3F74" />
<rect x="4" y="13" width="1" height="1" fill="#3F3F74" />
<rect x="5" y="13" width="1" height="1" fill="#000000" />
<rect x="6" y="13" width="1" height="1" fill="#323259" />
<rect x="7" y="13" width="1" height="1" fill="#3F3F74" />
<rect x="8" y="13" width="1" height="1" fill="#000000" />
<rect x="9" y="13" width="1" height="1" fill="#44447D" />
<rect x="10" y="13" width="1" height="1" fill="#000000" />
<rect x="11" y="13" width="1" height="1" fill="#4A4A86" />
<rect x="12" y="13" width="1" height="1" fill="#4D4D8B" />
<rect x="13" y="13" width="1" height="1" fill="#000000" />
<rect x="14" y="13" width="1" height="1" fill="#12ADCE" />
<rect x="15" y="13" width="1" height="1" fill="#48CEEA" />
<rect x="16" y="13" width="1" height="1" fill="#3ACFEE" />
<rect x="17" y="13" width="1" height="1" fill="#2CD0F2" />
<rect x="18" y="13" width="1" height="1" fill="#1ED1F6" />
<rect x="19" y="13" width="1" height="1" fill="#10D1FA" />
<rect x="20" y="13" width="1" height="1" fill="#02D2FE" />
<rect x="21" y="13" width="1" height="1" fill="#00D3FF" />
<rect x="22" y="13" width="1" height="1" fill="#000000" />
<rect x="0" y="14" width="1" height="1" fill="#000000" />
<rect x="1" y="14" width="1" height="1" fill="#3F3F74" />
<rect x="2" y="14" width="1" height="1" fill="#3F3F74" />
<rect x="3" y="14" width="1" height="1" fill="#3F3F74" />
<rect x="4" y="14" width="1" height="1" fill="#3F3F74" />
<rect x="5" y="14" width="1" height="1" fill="#000000" />
<rect x="6" y="14" width="1" height="1" fill="#323259" />
<rect x="7" y="14" width="1" height="1" fill="#404075" />
<rect x="8" y="14" width="1" height="1" fill="#000000" />
<rect x="9" y="14" width="1" height="1" fill="#46467F" />
<rect x="10" y="14" width="1" height="1" fill="#484883" />
<rect x="11" y="14" width="1" height="1" fill="#000000" />
<rect x="12" y="14" width="1" height="1" fill="#4E4E8D" />
<rect x="13" y="14" width="1" height="1" fill="#000000" />
<rect x="14" y="14" width="1" height="1" fill="#12ADCE" />
<rect x="15" y="14" width="1" height="1" fill="#51CDE7" />
<rect x="16" y="14" width="1" height="1" fill="#43CEEB" />
<rect x="17" y="14" width="1" height="1" fill="#35CFEF" />
<rect x="18" y="14" width="1" height="1" fill="#27D0F3" />
<rect x="19" y="14" width="1" height="1" fill="#19D1F7" />
<rect x="20" y="14" width="1" height="1" fill="#0BD2FB" />
<rect x="21" y="14" width="1" height="1" fill="#00D3FF" />
<rect x="22" y="14" width="1" height="1" fill="#000000" />
<rect x="0" y="15" width="1" height="1" fill="#000000" />
<rect x="1" y="15" width="1" height="1" fill="#3F3F74" />
<rect x="2" y="15" width="1" height="1" fill="#3F3F74" />
<rect x="3" y="15" width="1" height="1" fill="#3F3F74" />
<rect x="4" y="15" width="1" height="1" fill="#3F3F74" />
<rect x="5" y="15" width="1" height="1" fill="#3F3F74" />
<rect x="6" y="15" width="1" height="1" fill="#000000" />
<rect x="7" y="15" width="1" height="1" fill="#323259" />
<rect x="8" y="15" width="1" height="1" fill="#44447C" />
<rect x="9" y="15" width="1" height="1" fill="#000000" />
<rect x="10" y="15" width="1" height="1" fill="#4A4A85" />
<rect x="11" y="15" width="1" height="1" fill="#000000" />
<rect x="12" y="15" width="1" height="1" fill="#50508F" />
<rect x="13" y="15" width="1" height="1" fill="#323259" />
<rect x="14" y="15" width="1" height="1" fill="#000000" />
<rect x="15" y="15" width="1" height="1" fill="#12ADCE" />
<rect x="16" y="15" width="1" height="1" fill="#4BCEE9" />
<rect x="17" y="15" width="1" height="1" fill="#3DCFED" />
<rect x="18" y="15" width="1" height="1" fill="#2FD0F1" />
<rect x="19" y="15" width="1" height="1" fill="#21D0F5" />
<rect x="20" y="15" width="1" height="1" fill="#13D1F9" />
<rect x="21" y="15" width="1" height="1" fill="#05D2FD" />
<rect x="22" y="15" width="1" height="1" fill="#000000" />
<rect x="0" y="16" width="1" height="1" fill="#000000" />
<rect x="1" y="16" width="1" height="1" fill="#000000" />
<rect x="2" y="16" width="1" height="1" fill="#000000" />
<rect x="3" y="16" width="1" height="1" fill="#000000" />
<rect x="4" y="16" width="1" height="1" fill="#000000" />
<rect x="5" y="16" width="1" height="1" fill="#3F3F74" />
<rect x="6" y="16" width="1" height="1" fill="#000000" />
<rect x="7" y="16" width="1" height="1" fill="#000000" />
<rect x="8" y="16" width="1" height="1" fill="#323259" />
<rect x="9" y="16" width="1" height="1" fill="#484882" />
<rect x="10" y="16" width="1" height="1" fill="#4B4B87" />
<rect x="11" y="16" width="1" height="1" fill="#4E4E8C" />
<rect x="12" y="16" width="1" height="1" fill="#50508F" />
<rect x="13" y="16" width="1" height="1" fill="#50508F" />
<rect x="14" y="16" width="1" height="1" fill="#323259" />
<rect x="15" y="16" width="1" height="1" fill="#000000" />
<rect x="16" y="16" width="1" height="1" fill="#12ADCE" />
<rect x="17" y="16" width="1" height="1" fill="#45CEEB" />
<rect x="18" y="16" width="1" height="1" fill="#37CFEF" />
<rect x="19" y="16" width="1" height="1" fill="#29D0F3" />
<rect x="20" y="16" width="1" height="1" fill="#1BD1F7" />
<rect x="21" y="16" width="1" height="1" fill="#000000" />
<rect x="0" y="17" width="1" height="1" fill="#000000" />
<rect x="1" y="17" width="1" height="1" fill="#000000" />
<rect x="2" y="17" width="1" height="1" fill="#B32703" />
<rect x="3" y="17" width="1" height="1" fill="#B82903" />
<rect x="4" y="17" width="1" height="1" fill="#000000" />
<rect x="5" y="17" width="1" height="1" fill="#3F3F74" />
<rect x="6" y="17" width="1" height="1" fill="#3F3F74" />
<rect x="7" y="17" width="1" height="1" fill="#3F3F74" />
<rect x="8" y="17" width="1" height="1" fill="#000000" />
<rect x="9" y="17" width="1" height="1" fill="#323259" />
<rect x="10" y="17" width="1" height="1" fill="#323259" />
<rect x="11" y="17" width="1" height="1" fill="#4F4F8E" />
<rect x="12" y="17" width="1" height="1" fill="#50508F" />
<rect x="13" y="17" width="1" height="1" fill="#50508F" />
<rect x="14" y="17" width="1" height="1" fill="#50508F" />
<rect x="15" y="17" width="1" height="1" fill="#323259" />
<rect x="16" y="17" width="1" height="1" fill="#000000" />
<rect x="17" y="17" width="1" height="1" fill="#12ADCE" />
<rect x="18" y="17" width="1" height="1" fill="#40CEEC" />
<rect x="19" y="17" width="1" height="1" fill="#32CFF0" />
<rect x="20" y="17" width="1" height="1" fill="#24D0F4" />
<rect x="21" y="17" width="1" height="1" fill="#000000" />
<rect x="0" y="18" width="1" height="1" fill="#000000" />
<rect x="1" y="18" width="1" height="1" fill="#000000" />
<rect x="2" y="18" width="1" height="1" fill="#C02A03" />
<rect x="3" y="18" width="1" height="1" fill="#C52C03" />
<rect x="4" y="18" width="1" height="1" fill="#000000" />
<rect x="5" y="18" width="1" height="1" fill="#3F3F74" />
<rect x="6" y="18" width="1" height="1" fill="#3F3F74" />
<rect x="7" y="18" width="1" height="1" fill="#3F3F74" />
<rect x="8" y="18" width="1" height="1" fill="#000000" />
<rect x="9" y="18" width="1" height="1" fill="#000000" />
<rect x="10" y="18" width="1" height="1" fill="#000000" />
<rect x="11" y="18" width="1" height="1" fill="#323259" />
<rect x="12" y="18" width="1" height="1" fill="#323259" />
<rect x="13" y="18" width="1" height="1" fill="#323259" />
<rect x="14" y="18" width="1" height="1" fill="#323259" />
<rect x="15" y="18" width="1" height="1" fill="#323259" />
<rect x="16" y="18" width="1" height="1" fill="#323259" />
<rect x="17" y="18" width="1" height="1" fill="#000000" />
<rect x="18" y="18" width="1" height="1" fill="#12ADCE" />
<rect x="19" y="18" width="1" height="1" fill="#12ADCE" />
<rect x="20" y="18" width="1" height="1" fill="#000000" />
<rect x="0" y="19" width="1" height="1" fill="#000000" />
<rect x="1" y="19" width="1" height="1" fill="#000000" />
<rect x="2" y="19" width="1" height="1" fill="#CD2D03" />
<rect x="3" y="19" width="1" height="1" fill="#D22E03" />
<rect x="4" y="19" width="1" height="1" fill="#000000" />
<rect x="5" y="19" width="1" height="1" fill="#3F3F74" />
<rect x="6" y="19" width="1" height="1" fill="#3F3F74" />
<rect x="7" y="19" width="1" height="1" fill="#000000" />
<rect x="8" y="19" width="1" height="1" fill="#3F3F74" />
<rect x="9" y="19" width="1" height="1" fill="#3F3F74" />
<rect x="10" y="19" width="1" height="1" fill="#3F3F74" />
<rect x="11" y="19" width="1" height="1" fill="#000000" />
<rect x="12" y="19" width="1" height="1" fill="#000000" />
<rect x="13" y="19" width="1" height="1" fill="#000000" />
<rect x="14" y="19" width="1" height="1" fill="#000000" />
<rect x="15" y="19" width="1" height="1" fill="#000000" />
<rect x="16" y="19" width="1" height="1" fill="#000000" />
<rect x="17" y="19" width="1" height="1" fill="#000000" />
<rect x="18" y="19" width="1" height="1" fill="#000000" />
<rect x="19" y="19" width="1" height="1" fill="#000000" />
<rect x="0" y="20" width="1" height="1" fill="#000000" />
<rect x="1" y="20" width="1" height="1" fill="#323259" />
<rect x="2" y="20" width="1" height="1" fill="#000000" />
<rect x="3" y="20" width="1" height="1" fill="#DF3103" />
<rect x="4" y="20" width="1" height="1" fill="#E43303" />
<rect x="5" y="20" width="1" height="1" fill="#000000" />
<rect x="6" y="20" width="1" height="1" fill="#000000" />
<rect x="7" y="20" width="1" height="1" fill="#3F3F74" />
<rect x="8" y="20" width="1" height="1" fill="#50508F" />
<rect x="9" y="20" width="1" height="1" fill="#50508F" />
<rect x="10" y="20" width="1" height="1" fill="#3F3F74" />
<rect x="11" y="20" width="1" height="1" fill="#000000" />
<rect x="12" y="20" width="1" height="1" fill="#323259" />
<rect x="13" y="20" width="1" height="1" fill="#323259" />
<rect x="14" y="20" width="1" height="1" fill="#323259" />
<rect x="15" y="20" width="1" height="1" fill="#323259" />
<rect x="16" y="20" width="1" height="1" fill="#323259" />
<rect x="17" y="20" width="1" height="1" fill="#323259" />
<rect x="18" y="20" width="1" height="1" fill="#000000" />
<rect x="1" y="21" width="1" height="1" fill="#000000" />
<rect x="2" y="21" width="1" height="1" fill="#000000" />
<rect x="3" y="21" width="1" height="1" fill="#000000" />
<rect x="4" y="21" width="1" height="1" fill="#F23604" />
<rect x="5" y="21" width="1" height="1" fill="#F23604" />
<rect x="6" y="21" width="1" height="1" fill="#000000" />
<rect x="7" y="21" width="1" height="1" fill="#323259" />
<rect x="8" y="21" width="1" height="1" fill="#3F3F74" />
<rect x="9" y="21" width="1" height="1" fill="#50508F" />
<rect x="10" y="21" width="1" height="1" fill="#000000" />
<rect x="11" y="21" width="1" height="1" fill="#000000" />
<rect x="12" y="21" width="1" height="1" fill="#000000" />
<rect x="13" y="21" width="1" height="1" fill="#000000" />
<rect x="14" y="21" width="1" height="1" fill="#000000" />
<rect x="15" y="21" width="1" height="1" fill="#000000" />
<rect x="16" y="21" width="1" height="1" fill="#000000" />
<rect x="17" y="21" width="1" height="1" fill="#4C4C89" />
<rect x="18" y="21" width="1" height="1" fill="#4F4F8D" />
<rect x="19" y="21" width="1" height="1" fill="#000000" />
<rect x="20" y="21" width="1" height="1" fill="#000000" />
<rect x="21" y="21" width="1" height="1" fill="#000000" />
<rect x="22" y="21" width="1" height="1" fill="#000000" />
<rect x="23" y="21" width="1" height="1" fill="#000000" />
<rect x="4" y="22" width="1" height="1" fill="#000000" />
<rect x="5" y="22" width="1" height="1" fill="#000000" />
<rect x="6" y="22" width="1" height="1" fill="#000000" />
<rect x="7" y="22" width="1" height="1" fill="#000000" />
<rect x="8" y="22" width="1" height="1" fill="#323259" />
<rect x="9" y="22" width="1" height="1" fill="#323259" />
<rect x="10" y="22" width="1" height="1" fill="#000000" />
<rect x="11" y="22" width="1" height="1" fill="#A62503" />
<rect x="12" y="22" width="1" height="1" fill="#BF2A03" />
<rect x="13" y="22" width="1" height="1" fill="#D83003" />
<rect x="14" y="22" width="1" height="1" fill="#F23604" />
<rect x="15" y="22" width="1" height="1" fill="#000000" />
<rect x="16" y="22" width="1" height="1" fill="#FBF236" />
<rect x="17" y="22" width="1" height="1" fill="#000000" />
<rect x="18" y="22" width="1" height="1" fill="#4E4E8C" />
<rect x="19" y="22" width="1" height="1" fill="#000000" />
<rect x="20" y="22" width="1" height="1" fill="#A62503" />
<rect x="21" y="22" width="1" height="1" fill="#F23604" />
<rect x="22" y="22" width="1" height="1" fill="#000000" />
<rect x="23" y="22" width="1" height="1" fill="#FBF236" />
<rect x="24" y="22" width="1" height="1" fill="#000000" />
<rect x="8" y="23" width="1" height="1" fill="#000000" />
<rect x="9" y="23" width="1" height="1" fill="#000000" />
<rect x="10" y="23" width="1" height="1" fill="#000000" />
<rect x="11" y="23" width="1" height="1" fill="#000000" />
<rect x="12" y="23" width="1" height="1" fill="#000000" />
<rect x="13" y="23" width="1" height="1" fill="#000000" />
<rect x="14" y="23" width="1" height="1" fill="#000000" />
<rect x="15" y="23" width="1" height="1" fill="#000000" />
<rect x="16" y="23" width="1" height="1" fill="#000000" />
<rect x="17" y="23" width="1" height="1" fill="#4A4A86" />
<rect x="18" y="23" width="1" height="1" fill="#4D4D8A" />
<rect x="19" y="23" width="1" height="1" fill="#000000" />
<rect x="20" y="23" width="1" height="1" fill="#000000" />
<rect x="21" y="23" width="1" height="1" fill="#000000" />
<rect x="22" y="23" width="1" height="1" fill="#000000" />
<rect x="23" y="23" width="1" height="1" fill="#000000" />
<rect x="5" y="24" width="1" height="1" fill="#000000" />
<rect x="6" y="24" width="1" height="1" fill="#000000" />
<rect x="7" y="24" width="1" height="1" fill="#000000" />
<rect x="8" y="24" width="1" height="1" fill="#000000" />
<rect x="9" y="24" width="1" height="1" fill="#000000" />
<rect x="10" y="24" width="1" height="1" fill="#000000" />
<rect x="11" y="24" width="1" height="1" fill="#000000" />
<rect x="12" y="24" width="1" height="1" fill="#323259" />
<rect x="13" y="24" width="1" height="1" fill="#3F3F75" />
<rect x="14" y="24" width="1" height="1" fill="#424279" />
<rect x="15" y="24" width="1" height="1" fill="#44447D" />
<rect x="16" y="24" width="1" height="1" fill="#474781" />
<rect x="17" y="24" width="1" height="1" fill="#4A4A85" />
<rect x="18" y="24" width="1" height="1" fill="#4C4C89" />
<rect x="19" y="24" width="1" height="1" fill="#000000" />
<rect x="20" y="24" width="1" height="1" fill="#000000" />
<rect x="21" y="24" width="1" height="1" fill="#000000" />
<rect x="22" y="24" width="1" height="1" fill="#000000" />
<rect x="23" y="24" width="1" height="1" fill="#000000" />
<rect x="3" y="25" width="1" height="1" fill="#000000" />
<rect x="4" y="25" width="1" height="1" fill="#000000" />
<rect x="5" y="25" width="1" height="1" fill="#5A5AA1" />
<rect x="6" y="25" width="1" height="1" fill="#000000" />
<rect x="7" y="25" width="1" height="1" fill="#3F3F74" />
<rect x="8" y="25" width="1" height="1" fill="#5A5AA1" />
<rect x="9" y="25" width="1" height="1" fill="#000000" />
<rect x="10" y="25" width="1" height="1" fill="#3F3F74" />
<rect x="11" y="25" width="1" height="1" fill="#5A5AA1" />
<rect x="12" y="25" width="1" height="1" fill="#000000" />
<rect x="13" y="25" width="1" height="1" fill="#323259" />
<rect x="14" y="25" width="1" height="1" fill="#414178" />
<rect x="15" y="25" width="1" height="1" fill="#44447C" />
<rect x="16" y="25" width="1" height="1" fill="#464680" />
<rect x="17" y="25" width="1" height="1" fill="#494984" />
<rect x="18" y="25" width="1" height="1" fill="#4B4B88" />
<rect x="19" y="25" width="1" height="1" fill="#000000" />
<rect x="20" y="25" width="1" height="1" fill="#5A5AA1" />
<rect x="21" y="25" width="1" height="1" fill="#000000" />
<rect x="22" y="25" width="1" height="1" fill="#3F3F74" />
<rect x="23" y="25" width="1" height="1" fill="#5A5AA1" />
<rect x="24" y="25" width="1" height="1" fill="#000000" />
<rect x="2" y="26" width="1" height="1" fill="#000000" />
<rect x="3" y="26" width="1" height="1" fill="#3F3F74" />
<rect x="4" y="26" width="1" height="1" fill="#000000" />
<rect x="5" y="26" width="1" height="1" fill="#000000" />
<rect x="6" y="26" width="1" height="1" fill="#5A5AA1" />
<rect x="7" y="26" width="1" height="1" fill="#000000" />
<rect x="8" y="26" width="1" height="1" fill="#000000" />
<rect x="9" y="26" width="1" height="1" fill="#5A5AA1" />
<rect x="10" y="26" width="1" height="1" fill="#000000" />
<rect x="11" y="26" width="1" height="1" fill="#000000" />
<rect x="12" y="26" width="1" height="1" fill="#5A5AA1" />
<rect x="13" y="26" width="1" height="1" fill="#000000" />
<rect x="14" y="26" width="1" height="1" fill="#323259" />
<rect x="15" y="26" width="1" height="1" fill="#323259" />
<rect x="16" y="26" width="1" height="1" fill="#323259" />
<rect x="17" y="26" width="1" height="1" fill="#484882" />
<rect x="18" y="26" width="1" height="1" fill="#000000" />
<rect x="19" y="26" width="1" height="1" fill="#000000" />
<rect x="20" y="26" width="1" height="1" fill="#000000" />
<rect x="21" y="26" width="1" height="1" fill="#5A5AA1" />
<rect x="22" y="26" width="1" height="1" fill="#000000" />
<rect x="23" y="26" width="1" height="1" fill="#000000" />
<rect x="24" y="26" width="1" height="1" fill="#5A5AA1" />
<rect x="25" y="26" width="1" height="1" fill="#000000" />
<rect x="2" y="27" width="1" height="1" fill="#000000" />
<rect x="3" y="27" width="1" height="1" fill="#323259" />
<rect x="4" y="27" width="1" height="1" fill="#000000" />
<rect x="5" y="27" width="1" height="1" fill="#000000" />
<rect x="6" y="27" width="1" height="1" fill="#5A5AA1" />
<rect x="7" y="27" width="1" height="1" fill="#000000" />
<rect x="8" y="27" width="1" height="1" fill="#000000" />
<rect x="9" y="27" width="1" height="1" fill="#5A5AA1" />
<rect x="10" y="27" width="1" height="1" fill="#000000" />
<rect x="11" y="27" width="1" height="1" fill="#000000" />
<rect x="12" y="27" width="1" height="1" fill="#5A5AA1" />
<rect x="13" y="27" width="1" height="1" fill="#000000" />
<rect x="14" y="27" width="1" height="1" fill="#000000" />
<rect x="15" y="27" width="1" height="1" fill="#000000" />
<rect x="16" y="27" width="1" height="1" fill="#000000" />
<rect x="17" y="27" width="1" height="1" fill="#000000" />
<rect x="18" y="27" width="1" height="1" fill="#3F3F74" />
<rect x="19" y="27" width="1" height="1" fill="#000000" />
<rect x="20" y="27" width="1" height="1" fill="#000000" />
<rect x="21" y="27" width="1" height="1" fill="#5A5AA1" />
<rect x="22" y="27" width="1" height="1" fill="#000000" />
<rect x="23" y="27" width="1" height="1" fill="#000000" />
<rect x="24" y="27" width="1" height="1" fill="#5A5AA1" />
<rect x="25" y="27" width="1" height="1" fill="#000000" />
<rect x="3" y="28" width="1" height="1" fill="#000000" />
<rect x="4" y="28" width="1" height="1" fill="#323259" />
<rect x="5" y="28" width="1" height="1" fill="#323259" />
<rect x="6" y="28" width="1" height="1" fill="#000000" />
<rect x="7" y="28" width="1" height="1" fill="#323259" />
<rect x="8" y="28" width="1" height="1" fill="#323259" />
<rect x="9" y="28" width="1" height="1" fill="#000000" />
<rect x="10" y="28" width="1" height="1" fill="#323259" />
<rect x="11" y="28" width="1" height="1" fill="#323259" />
<rect x="12" y="28" width="1" height="1" fill="#000000" />
<rect x="13" y="28" width="1" height="1" fill="#323259" />
<rect x="14" y="28" width="1" height="1" fill="#323259" />
<rect x="15" y="28" width="1" height="1" fill="#000000" />
<rect x="16" y="28" width="1" height="1" fill="#323259" />
<rect x="17" y="28" width="1" height="1" fill="#323259" />
<rect x="18" y="28" width="1" height="1" fill="#000000" />
<rect x="19" y="28" width="1" height="1" fill="#323259" />
<rect x="20" y="28" width="1" height="1" fill="#323259" />
<rect x="21" y="28" width="1" height="1" fill="#000000" />
<rect x="22" y="28" width="1" height="1" fill="#323259" />
<rect x="23" y="28" width="1" height="1" fill="#323259" />
<rect x="24" y="28" width="1" height="1" fill="#000000" />
<rect x="25" y="28" width="1" height="1" fill="#000000" />
<rect x="4" y="29" width="1" height="1" fill="#000000" />
<rect x="5" y="29" width="1" height="1" fill="#000000" />
<rect x="6" y="29" width="1" height="1" fill="#000000" />
<rect x="7" y="29" width="1" height="1" fill="#000000" />
<rect x="8" y="29" width="1" height="1" fill="#000000" />
<rect x="9" y="29" width="1" height="1" fill="#000000" />
<rect x="10" y="29" width="1" height="1" fill="#000000" />
<rect x="11" y="29" width="1" height="1" fill="#000000" />
<rect x="12" y="29" width="1" height="1" fill="#000000" />
<rect x="13" y="29" width="1" height="1" fill="#000000" />
<rect x="14" y="29" width="1" height="1" fill="#000000" />
<rect x="15" y="29" width="1" height="1" fill="#000000" />
<rect x="16" y="29" width="1" height="1" fill="#000000" />
<rect x="17" y="29" width="1" height="1" fill="#000000" />
<rect x="18" y="29" width="1" height="1" fill="#000000" />
<rect x="19" y="29" width="1" height="1" fill="#000000" />
<rect x="20" y="29" width="1" height="1" fill="#000000" />
<rect x="21" y="29" width="1" height="1" fill="#000000" />
<rect x="22" y="29" width="1" height="1" fill="#000000" />
<rect x="23" y="29" width="1" height="1" fill="#000000" />
<rect x="24" y="29" width="1" height="1" fill="#000000" />
</svg>